<svg xmlns="http://www.w3.org/2000/svg" viewBox="0 0 61.77 55.25">
<defs><style>.a{fill:currentcolor;fill-rule:evenodd;}</style></defs>
<title>wire frame game master</title>
<path class="a" d="M32.23,50.78H43.58a5,5,0,0,0,5-5V8.15l11.91,3.2a1.78,1.78,0,0,1,1.26,2.18L50.89,53.93a1.8,1.8,0,0,1-2.19,1.26L32.23,50.78Z"/>
<path class="a" d="M33.37,47.6,35.72,47a5,5,0,0,0,3.51-6.07L28.86,2.21H43.58a1.81,1.81,0,0,1,1.26.52A1.78,1.78,0,0,1,45.36,4V45.82a1.78,1.78,0,0,1-1.78,1.78Z"/>
<path class="a" d="M34.9,43.91,13.07,49.75a1.77,1.77,0,0,1-1.35-.17,1.84,1.84,0,0,1-.84-1.09L.06,8.1A1.79,1.79,0,0,1,1.32,5.91L23.15.06A1.77,1.77,0,0,1,24.5.24,1.74,1.74,0,0,1,25,.62a1.86,1.86,0,0,1,.37.71L36.16,41.72A1.77,1.77,0,0,1,36,43.07a1.85,1.85,0,0,1-1.08.84Z"/></svg>