<svg xmlns="http://www.w3.org/2000/svg"  viewBox="0 0 55 55">
<title>Cog_wheel_icon</title>
<path d="M55,29.74V25.27a2.19,2.19,0,0,0-1.32-2l-4.83-2.07a21.69,21.69,0,0,0-1.79-4.33L49,12a2.2,2.2,0,0,0-.48-2.35L45.36,6.47A2.16,2.16,0,0,0,43,6l-4.87,2a21.12,21.12,0,0,0-4.33-1.79L31.74,1.32a2.19,2.19,0,0,0-2-1.32H25.27a2.19,2.19,0,0,0-2,1.32L21.19,6.15a21,21,0,0,0-4.32,1.79L12,6a2.16,2.16,0,0,0-2.35.48L6.47,9.63A2.2,2.2,0,0,0,6,12l2,4.88a21.69,21.69,0,0,0-1.79,4.33L1.32,23.26a2.19,2.19,0,0,0-1.32,2v4.47a2.19,2.19,0,0,0,1.32,2l4.83,2.07a21.6,21.6,0,0,0,1.79,4.32L6,43a2.19,2.19,0,0,0,.48,2.35l3.17,3.16A2.18,2.18,0,0,0,12,49l4.88-1.95a22.2,22.2,0,0,0,4.32,1.79l2.07,4.83a2.19,2.19,0,0,0,2,1.32h4.46a2.19,2.19,0,0,0,2-1.32l2.07-4.83a22.29,22.29,0,0,0,4.33-1.79L43,49a2.18,2.18,0,0,0,2.35-.49l3.17-3.16A2.19,2.19,0,0,0,49,43l-1.95-4.88a21.6,21.6,0,0,0,1.79-4.32l4.83-2.07A2.19,2.19,0,0,0,55,29.74Zm-27.5,10A12.23,12.23,0,1,1,39.72,27.5,12.22,12.22,0,0,1,27.5,39.72Z" fill="currentColor"/></svg>