<svg xmlns="http://www.w3.org/2000/svg" viewBox="0 0 38.54 21.11">
<defs><style>.a{fill:currentcolor;}</style></defs>
<title>friends_botton_icon</title>
<path class="a" d="M28.06,21.11H10.48a8.79,8.79,0,1,1,17.58,0Z"/>
<circle class="a" cx="19.27" cy="5.14" r="5.14"/>
<path class="a" d="M38.54,21.11h-8a11.21,11.21,0,0,0-2.36-6.89,7.49,7.49,0,0,1,10.38,6.89Z"/>
<circle class="a" cx="31.06" cy="7.52" r="4.37"/>
<path class="a" d="M7.47,13.64a7.63,7.63,0,0,1,2.91.58A11.21,11.21,0,0,0,8,21.11H0A7.48,7.48,0,0,1,7.47,13.64Z"/>
<circle class="a" cx="7.48" cy="7.52" r="4.37"/></svg>