<?xml version="1.0" encoding="UTF-8" standalone="no"?>
<!DOCTYPE svg PUBLIC "-//W3C//DTD SVG 1.1//EN" "http://www.w3.org/Graphics/SVG/1.1/DTD/svg11.dtd">
<svg width="100%" height="100%" viewBox="0 0 68 68" version="1.1" xmlns="http://www.w3.org/2000/svg" xmlns:xlink="http://www.w3.org/1999/xlink" xml:space="preserve" xmlns:serif="http://www.serif.com/" style="fill-rule:evenodd;clip-rule:evenodd;stroke-linejoin:round;stroke-miterlimit:2;">
    <g transform="matrix(1,0,0,1,-1095.24,230.925)">
        <g transform="matrix(-0.726988,0.736186,-0.205936,-0.170148,2958.35,-1963.38)">
            <path d="M2447.95,88.854C2448.33,73.298 2451.89,60.748 2455.88,60.846C2459.88,60.943 2462.82,73.652 2462.44,89.209L2460.9,152.259C2460.52,167.816 2456.96,180.366 2452.96,180.268C2448.96,180.17 2446.03,167.461 2446.41,151.905L2447.95,88.854Z" style="fill:rgb(90,90,90);"/>
        </g>
        <g transform="matrix(0.838676,-0.838676,0.838676,0.838676,-3176.29,3978.95)">
            <path d="M5056.43,47.458C5070.7,47.458 5082.29,59.047 5082.29,73.32C5082.29,87.594 5070.7,99.182 5056.43,99.182C5042.15,99.182 5030.57,87.594 5030.57,73.32C5030.57,59.047 5042.15,47.458 5056.43,47.458ZM5056.43,60.105C5049.14,60.105 5043.21,66.027 5043.21,73.32C5043.21,80.614 5049.14,86.536 5056.43,86.536C5063.72,86.536 5069.64,80.614 5069.64,73.32C5069.64,66.027 5063.72,60.105 5056.43,60.105Z" style="fill:rgb(90,90,90);"/>
        </g>
    </g>
</svg>
