<?xml version="1.0" encoding="UTF-8" standalone="no"?>
<!DOCTYPE svg PUBLIC "-//W3C//DTD SVG 1.1//EN" "http://www.w3.org/Graphics/SVG/1.1/DTD/svg11.dtd">
<svg width="100%" height="100%" viewBox="0 0 69 69" version="1.1" xmlns="http://www.w3.org/2000/svg" xmlns:xlink="http://www.w3.org/1999/xlink" xml:space="preserve" xmlns:serif="http://www.serif.com/" style="fill-rule:evenodd;clip-rule:evenodd;stroke-linejoin:round;stroke-miterlimit:2;">
    <g transform="matrix(1,0,0,1,-985.004,234.437)">
        <g transform="matrix(-0.845794,0.020687,-0.020687,-0.845794,3097.61,-149.066)">
            <path d="M2446.33,88.815C2446.45,83.924 2450.52,80.05 2455.41,80.169C2460.3,80.289 2464.18,84.357 2464.06,89.248L2462.51,152.299C2462.39,157.19 2458.33,161.064 2453.43,160.944C2448.54,160.825 2444.67,156.756 2444.79,151.865L2446.33,88.815Z" style="fill:rgb(90,90,90);"/>
        </g>
        <g transform="matrix(0.020687,0.845794,-0.845794,0.020687,1070.38,-2278.69)">
            <path d="M2446.33,88.815C2446.45,83.924 2450.52,80.05 2455.41,80.169C2460.3,80.289 2464.18,84.357 2464.06,89.248L2462.51,152.299C2462.39,157.19 2458.33,161.064 2453.43,160.944C2448.54,160.825 2444.67,156.756 2444.79,151.865L2446.33,88.815Z" style="fill:rgb(90,90,90);"/>
        </g>
    </g>
</svg>
