<svg xmlns="http://www.w3.org/2000/svg" viewBox="0 0 55 55">
<title>randomize_icon_game master-21</title>
<defs><style>.a{fill:currentcolor;}</style></defs>
<path class="a" d="M54.09,41.88c-2.48,2.51-5,5-7.46,7.47a2.93,2.93,0,0,1-2.07.9,2.35,2.35,0,0,1-.6-.06,3.74,3.74,0,0,1-.59-.21,3,3,0,0,1-.68-.43,2.85,2.85,0,0,1-.08-4.22l2.69-2.66c-1.36,0-2.64,0-3.9,0-.74,0-1.46,0-2.19,0a5.62,5.62,0,0,1-.58,0,13.54,13.54,0,0,1-9-3.13,17.1,17.1,0,0,1-1.4-1.3c-.44-.47-.87-1-1.28-1.5v0c-.4-.53-.79-1.09-1.16-1.69a21.63,21.63,0,0,1-2.72-7.26,14.06,14.06,0,0,0-3.72-7.28,8.47,8.47,0,0,0-1.28-1.06A7.18,7.18,0,0,0,16,18.39c-.24-.08-.52-.15-.78-.21A8,8,0,0,0,13.33,18c-3.49,0-7,0-10.48,0A2.82,2.82,0,0,1,.18,16.13,2.64,2.64,0,0,1,1,13a3.4,3.4,0,0,1,1.77-.68c2.21,0,4.43-.06,6.64-.06q2.46,0,4.92.06A13.39,13.39,0,0,1,24,17.08a20.81,20.81,0,0,1,4.83,10.11,13.21,13.21,0,0,0,4.6,8.07A7.5,7.5,0,0,0,38.24,37h.08c2.1,0,4.19,0,6.29,0h.72c-1-1-1.87-1.82-2.72-2.69a2.75,2.75,0,0,1-.84-2.6,2.82,2.82,0,0,1,4.78-1.48c1.58,1.56,3.14,3.13,4.71,4.69.93.93,1.88,1.87,2.8,2.82A2.8,2.8,0,0,1,54.09,41.88Z"/>
<path class="a" d="M8.92,18H2.85c3.49,0,7,0,10.48,0Zm4.54,0a.34.34,0,0,0-.13,0,8,8,0,0,1,1.85.16A8,8,0,0,0,13.46,18Z"/>
<path class="a" d="M54,17.32Q50.36,21,46.68,24.65a2.84,2.84,0,1,1-4-4c.8-.84,1.64-1.66,2.44-2.48a.27.27,0,0,0,.07-.12c-.18,0-.34,0-.5,0-2,0-4,0-6,0A8.07,8.07,0,0,0,32,21.14a16.39,16.39,0,0,0-1.08,1.48A22.19,22.19,0,0,0,28,17a13,13,0,0,1,8.49-4.52c2.62-.25,5.28-.12,7.92-.15h.88L42.69,9.74a2.84,2.84,0,1,1,4-4Q50.36,9.36,54,13A2.83,2.83,0,0,1,54,17.32Z"/>
<path class="a" d="M23.91,38a13.58,13.58,0,0,1-10.26,4.69H3.06a2.85,2.85,0,1,1,0-5.68c3.42,0,6.83-.05,10.25,0a8,8,0,0,0,6.29-2.76A18.14,18.14,0,0,0,21,32.4a21.67,21.67,0,0,0,2.08,4.36C23.35,37.18,23.62,37.6,23.91,38Z"/></svg>