<svg xmlns="http://www.w3.org/2000/svg" width="3in" height="1.34in" viewBox="0 0 216 96.22"><title>Score Deck logo</title><path d="M161.41,20.75a7.55,7.55,0,0,0-4.55-3.48l-18-4.81-6-1.61v63a2.71,2.71,0,0,1-2.7,2.71H76.77l12.44,3.33H76.77l35.07,9.4L136.68,96a7.42,7.42,0,0,0,1.93.26,7.5,7.5,0,0,0,3.75-1,7.41,7.41,0,0,0,3.47-4.53l16.33-60.92a7.52,7.52,0,0,0,.24-2.11c0-.51,0-2.65,0-3.22A7.57,7.57,0,0,0,161.41,20.75ZM130.19,84.69a7.48,7.48,0,0,0,7.48-7.48V20.41l18,4.81a2.73,2.73,0,0,1,1.58,1.18l-16,59.71A2.71,2.71,0,0,1,140,87.74a2.68,2.68,0,0,1-1.35.36,2.8,2.8,0,0,1-.7-.09l-12.38-3.32Z" fill="#149fe5"/><path d="M113.08,81.36h17.11a7.48,7.48,0,0,0,7.48-7.49V17.08l18,4.81a2.7,2.7,0,0,1,1.91,3.3L141.22,86.11A2.71,2.71,0,0,1,140,87.74a2.67,2.67,0,0,1-2.05.27l-24.83-6.65Z" fill="#fff" fill-rule="evenodd"/><path d="M135.48,5.52a7.44,7.44,0,0,0-5.29-2.18H101.77l.89,3.33h-.89l1.61,6,15.31,57.13A2.68,2.68,0,0,1,117.1,71l-3.55,1-35,9.4H91L78.52,84.69h51.67a7.45,7.45,0,0,0,5.29-2.19,7.54,7.54,0,0,0,2.19-5.29V10.81A7.45,7.45,0,0,0,135.48,5.52Zm-5.29,5.93a2.7,2.7,0,0,1,2.7,2.7V73.87a2.7,2.7,0,0,1-2.7,2.7H122.1a7.06,7.06,0,0,0,.78-1.1,7.44,7.44,0,0,0,.81-5.4,7.4,7.4,0,0,0-.06-3.62l-14.74-55Z" fill="#ffcc05"/><path d="M114.79,76.57l3.55-.95a7.5,7.5,0,0,0,5.29-9.17L108,8.12h22.19a2.68,2.68,0,0,1,2.7,2.69V73.87a2.7,2.7,0,0,1-2.7,2.7Z" fill="#fff" fill-rule="evenodd"/><path d="M123.62,66.45,107.3,5.54a7.53,7.53,0,0,0-1.53-2.92A7.52,7.52,0,0,0,100.08,0h0a7.41,7.41,0,0,0-1.93.25L65.24,9.07a7.41,7.41,0,0,0-4.54,3.49,7.3,7.3,0,0,0-1,3.54c0,.61,0,1.74,0,2.35A15.66,15.66,0,0,0,60,21.56L76.27,82.48A7.43,7.43,0,0,0,79.75,87a7.56,7.56,0,0,0,3.74,1,7.44,7.44,0,0,0,1.94-.26L118.34,79a7.45,7.45,0,0,0,5.53-7.42c0-.49,0-2.74,0-3.39A7.52,7.52,0,0,0,123.62,66.45ZM80.89,77.91l-16-59.71A2.67,2.67,0,0,1,66.47,17L99.38,8.21a2.8,2.8,0,0,1,.7-.09,2.68,2.68,0,0,1,1.35.36,2.78,2.78,0,0,1,.7.58,2.73,2.73,0,0,1,.56,1l16,59.71A2.67,2.67,0,0,1,117.1,71L84.19,79.81a2.74,2.74,0,0,1-.7.09,2.68,2.68,0,0,1-2.6-2Z" fill="#ea5028"/><path d="M117.1,71,84.19,79.81a2.69,2.69,0,0,1-3.3-1.9L64.57,17a2.7,2.7,0,0,1,1.9-3.3L99.38,4.87a2.72,2.72,0,0,1,2.05.27,3,3,0,0,1,.7.58,2.85,2.85,0,0,1,.56,1.06L119,67.69a2.77,2.77,0,0,1-.27,2A2.68,2.68,0,0,1,117.1,71Z" fill="#fff" fill-rule="evenodd"/><path d="M110,40a12.39,12.39,0,0,0-4.88-5.13,13.66,13.66,0,0,0-7-1.77A14.2,14.2,0,0,0,90.93,35l-.07,0v0A7,7,0,0,0,86,33.15l-.71,0-.47,0a10.29,10.29,0,0,0-3.83,1,8,8,0,0,0-4.07-1A8.13,8.13,0,0,0,71.69,35a7,7,0,0,0-1.45,1.63,13.62,13.62,0,0,0-2.72-1.86,17.93,17.93,0,0,0-15.2,0,13.6,13.6,0,0,0-2.23,1.46A7.29,7.29,0,0,0,49,35.38a15.12,15.12,0,0,0-4.09-1.72,17.5,17.5,0,0,0-4.41-.57A16.16,16.16,0,0,0,33,34.84,14,14,0,0,0,31.17,36a8.15,8.15,0,0,0,.14-1.48A7.4,7.4,0,0,0,30.52,31a7.62,7.62,0,0,0-2.36-2.66,17.25,17.25,0,0,0-5.46-2.63,23.49,23.49,0,0,0-6.27-.79A18.8,18.8,0,0,0,8.8,26.47,14.37,14.37,0,0,0,2.93,31.1,11.89,11.89,0,0,0,.58,38.27v4.09a12.09,12.09,0,0,0,1.14,5.26h0A7.62,7.62,0,0,0,0,52.51v4.08a7.43,7.43,0,0,0,.83,3.54A7.79,7.79,0,0,0,3,62.63l.07.06.07,0A17.66,17.66,0,0,0,9,65.3a27.6,27.6,0,0,0,6.88.82,20,20,0,0,0,7.72-1.41,14,14,0,0,0,5.07-3.51c.28.33.57.66.89,1A14.58,14.58,0,0,0,40.1,66.08a16.82,16.82,0,0,0,8.82-2.26,7,7,0,0,0,1.19-.91,13.06,13.06,0,0,0,2.22,1.45,17.67,17.67,0,0,0,15.21,0,14.12,14.12,0,0,0,2.68-1.84,6.94,6.94,0,0,0,1.51,1.69,8.74,8.74,0,0,0,10.6,0A7.38,7.38,0,0,0,85,58.3V57.2a13,13,0,0,0,6.42,7.19A16.67,16.67,0,0,0,99,66.08a18.25,18.25,0,0,0,4.4-.58,19.09,19.09,0,0,0,4.06-1.45l.06,0,.06,0a7.07,7.07,0,0,0,3.9-6.35V53.55a8.24,8.24,0,0,0-.07-1,7.54,7.54,0,0,0,.14-1.4V47.08A15.27,15.27,0,0,0,110,40Z" fill="#4b4f59"/><path d="M216,54.06a7.45,7.45,0,0,0-1.93-5,7.36,7.36,0,0,0,1.35-4.21V40.79A7.62,7.62,0,0,0,202.85,35V32.84a7.47,7.47,0,0,0-2.64-5.9,8.67,8.67,0,0,0-10.68,0,7.46,7.46,0,0,0-2.63,5.9V34c-.3-.1-.58-.22-.89-.3a17.48,17.48,0,0,0-4.4-.57,16.18,16.18,0,0,0-7.54,1.75,13.42,13.42,0,0,0-3.77,2.92,12.39,12.39,0,0,0-3.38-2.9,13.7,13.7,0,0,0-7-1.77,14.2,14.2,0,0,0-7.2,1.86,12.88,12.88,0,0,0-2,1.43,15.84,15.84,0,0,0-1.11-2.44,16.18,16.18,0,0,0-6.93-6.52,21.78,21.78,0,0,0-9.85-2.13h-7.83a7.47,7.47,0,0,0-7.82,7.82V58a7.46,7.46,0,0,0,7.82,7.82h7.83a22.07,22.07,0,0,0,9.87-2.1A16.21,16.21,0,0,0,148,59.54a13.06,13.06,0,0,0,5.27,4.85,16.62,16.62,0,0,0,7.59,1.69,18.12,18.12,0,0,0,4.4-.58,19.19,19.19,0,0,0,4.07-1.45l.06,0,.06,0a8,8,0,0,0,1.81-1.34,14.65,14.65,0,0,0,10,3.43,16.88,16.88,0,0,0,8.28-2l0,0a8.63,8.63,0,0,0,10.68,0,6.86,6.86,0,0,0,1.49-1.69l1.38,1.32,0,0,.05,0A7.72,7.72,0,0,0,208.37,66a7.43,7.43,0,0,0,5.55-2.5A7.86,7.86,0,0,0,216,58.14Z" fill="#4b4f59"/><path d="M10.13,56.83A13.12,13.12,0,0,1,5.77,55a3.17,3.17,0,0,1-.95-1.05,2.84,2.84,0,0,1-.3-1.39,3.12,3.12,0,0,1,.7-2,2.06,2.06,0,0,1,1.63-.85,3.12,3.12,0,0,1,1,.15A6.9,6.9,0,0,1,9,50.37a12.13,12.13,0,0,0,3.16,1.28A14.72,14.72,0,0,0,15.7,52a7,7,0,0,0,3.47-.68,2.16,2.16,0,0,0,1.18-2,1.83,1.83,0,0,0-1.1-1.54A16.16,16.16,0,0,0,15,46.57a24.44,24.44,0,0,1-6-1.94A7.15,7.15,0,0,1,6,42a7.93,7.93,0,0,1,.6-8.21,9.8,9.8,0,0,1,4.05-3.16,14.23,14.23,0,0,1,5.8-1.15,18.5,18.5,0,0,1,5.05.63,12.83,12.83,0,0,1,4,1.93,3.16,3.16,0,0,1,1,1.07,3.06,3.06,0,0,1,.29,1.38,3.18,3.18,0,0,1-.68,2,2,2,0,0,1-1.61.85,3.12,3.12,0,0,1-.93-.14,6.52,6.52,0,0,1-1.2-.6L21.26,36a9,9,0,0,0-2.13-.77,11.17,11.17,0,0,0-2.66-.3,5.94,5.94,0,0,0-3.18.76,2.28,2.28,0,0,0-1.2,2,1.68,1.68,0,0,0,.43,1.2,4.14,4.14,0,0,0,1.59.91,22.52,22.52,0,0,0,3.45.91,23.71,23.71,0,0,1,5.86,2,7.49,7.49,0,0,1,3,2.66,6.86,6.86,0,0,1,.89,3.57,7.42,7.42,0,0,1-1.43,4.52,9.24,9.24,0,0,1-4,3,15.4,15.4,0,0,1-6,1.07A23.33,23.33,0,0,1,10.13,56.83Z" fill="#fff"/><path d="M32.72,54.83A9.52,9.52,0,0,1,30,47.66a10.4,10.4,0,0,1,1.32-5.28A9,9,0,0,1,35,38.85a11.73,11.73,0,0,1,5.45-1.24,12.53,12.53,0,0,1,3.26.43,10.07,10.07,0,0,1,2.87,1.2,2.46,2.46,0,0,1,1.2,2.25,3.18,3.18,0,0,1-.56,2,1.74,1.74,0,0,1-1.45.76A3.56,3.56,0,0,1,44.67,44a8.22,8.22,0,0,1-1.2-.52A12.91,12.91,0,0,0,42.15,43a4.09,4.09,0,0,0-1.2-.17q-3.84,0-3.84,4.69a5.52,5.52,0,0,0,1,3.55A3.44,3.44,0,0,0,41,52.27a4,4,0,0,0,1.22-.17,8.68,8.68,0,0,0,1.26-.52c.52-.24.94-.41,1.26-.53a3.33,3.33,0,0,1,1.07-.17,1.73,1.73,0,0,1,1.45.75,3.19,3.19,0,0,1,.57,2,3,3,0,0,1-.31,1.34,2.17,2.17,0,0,1-.86.91,12.24,12.24,0,0,1-6.51,1.63A10.13,10.13,0,0,1,32.72,54.83Z" fill="#fff"/><path d="M54.39,56.25a8.69,8.69,0,0,1-3.68-3.47,10.34,10.34,0,0,1-1.3-5.28,10.2,10.2,0,0,1,1.3-5.25,8.69,8.69,0,0,1,3.66-3.44,13.43,13.43,0,0,1,11.1,0,8.81,8.81,0,0,1,3.66,3.44,10.2,10.2,0,0,1,1.3,5.25,10.34,10.34,0,0,1-1.3,5.28,8.82,8.82,0,0,1-3.66,3.47,13.19,13.19,0,0,1-11.08,0ZM63.6,47.5c0-3.2-1.22-4.81-3.68-4.81s-3.69,1.61-3.69,4.81,1.23,4.81,3.69,4.81S63.6,50.71,63.6,47.5Z" fill="#fff"/><path d="M87.77,38.29a2.73,2.73,0,0,1,.78,2.11,3,3,0,0,1-.72,2.25,4.35,4.35,0,0,1-2.58.9l-1.16.11a4.16,4.16,0,0,0-2.78,1.22,4,4,0,0,0-.83,2.7v6.63a2.89,2.89,0,0,1-1,2.39,4.24,4.24,0,0,1-4.93,0,2.89,2.89,0,0,1-1-2.39V40.79a2.81,2.81,0,0,1,1-2.29A3.66,3.66,0,0,1,77,37.69a3.41,3.41,0,0,1,2.31.77,2.78,2.78,0,0,1,.87,2.18v.73a5.17,5.17,0,0,1,2-2.63,5.9,5.9,0,0,1,3-1l.55,0A2.59,2.59,0,0,1,87.77,38.29Z" fill="#fff"/><path d="M106.41,51.73a2.84,2.84,0,0,1,.56,1.82,2.56,2.56,0,0,1-1.51,2.37A15.28,15.28,0,0,1,102.34,57a14.32,14.32,0,0,1-3.32.44,12.14,12.14,0,0,1-5.55-1.2,8.49,8.49,0,0,1-3.64-3.45,10.43,10.43,0,0,1-1.28-5.28,10.61,10.61,0,0,1,1.22-5.14,8.78,8.78,0,0,1,3.41-3.53,9.75,9.75,0,0,1,4.95-1.26,9.27,9.27,0,0,1,4.69,1.16,7.89,7.89,0,0,1,3.12,3.3,10.7,10.7,0,0,1,1.11,5,2.07,2.07,0,0,1-.41,1.37,1.43,1.43,0,0,1-1.18.49H95.22a4.23,4.23,0,0,0,1.2,2.67,4,4,0,0,0,2.75.82,7.15,7.15,0,0,0,1.79-.21c.54-.15,1.15-.35,1.82-.61.39-.15.77-.29,1.15-.4a3.33,3.33,0,0,1,1-.18A1.81,1.81,0,0,1,106.41,51.73ZM96.15,43.14a4.18,4.18,0,0,0-1,2.54h6.09c-.16-2.28-1.14-3.41-3-3.41A2.83,2.83,0,0,0,96.15,43.14Z" fill="#fff"/><path d="M122.6,56.31a3.33,3.33,0,0,1-.85-2.44V33.11a3,3,0,0,1,3.3-3.3h7.83a17.22,17.22,0,0,1,7.82,1.65,11.58,11.58,0,0,1,5,4.72,14.41,14.41,0,0,1,1.75,7.29,14.85,14.85,0,0,1-1.73,7.35,11.34,11.34,0,0,1-5,4.71,17.44,17.44,0,0,1-7.86,1.63h-7.83A3.32,3.32,0,0,1,122.6,56.31Zm15.77-6.85q2-2,2-6t-2-6q-2-1.93-6-1.93h-3.49V51.42h3.49Q136.37,51.42,138.37,49.46Z" fill="#fff"/><path d="M168.24,51.73a2.79,2.79,0,0,1,.57,1.82,2.57,2.57,0,0,1-1.52,2.37A15.28,15.28,0,0,1,164.17,57a14.25,14.25,0,0,1-3.32.44,12.06,12.06,0,0,1-5.54-1.2,8.51,8.51,0,0,1-3.65-3.45,10.53,10.53,0,0,1-1.28-5.28,10.72,10.72,0,0,1,1.22-5.14A8.78,8.78,0,0,1,155,38.87a9.75,9.75,0,0,1,5-1.26,9.24,9.24,0,0,1,4.69,1.16,8,8,0,0,1,3.13,3.3,10.82,10.82,0,0,1,1.1,5,2.07,2.07,0,0,1-.4,1.37,1.46,1.46,0,0,1-1.19.49H157.05a4.23,4.23,0,0,0,1.2,2.67,4,4,0,0,0,2.76.82,7.12,7.12,0,0,0,1.78-.21c.54-.15,1.15-.35,1.83-.61.38-.15.76-.29,1.14-.4a3.39,3.39,0,0,1,1-.18A1.79,1.79,0,0,1,168.24,51.73ZM158,43.14a4.18,4.18,0,0,0-1,2.54h6.09c-.15-2.28-1.14-3.41-2.95-3.41A2.83,2.83,0,0,0,158,43.14Z" fill="#fff"/><path d="M173.85,54.83a9.53,9.53,0,0,1-2.72-7.17,10.4,10.4,0,0,1,1.32-5.28,9,9,0,0,1,3.71-3.53,11.7,11.7,0,0,1,5.45-1.24,12.51,12.51,0,0,1,3.25.43,10.14,10.14,0,0,1,2.88,1.2,2.46,2.46,0,0,1,1.2,2.25,3.19,3.19,0,0,1-.57,2,1.73,1.73,0,0,1-1.45.76A3.5,3.5,0,0,1,185.8,44a7.86,7.86,0,0,1-1.21-.52,11.31,11.31,0,0,0-1.32-.53,4.09,4.09,0,0,0-1.2-.17q-3.84,0-3.84,4.69a5.52,5.52,0,0,0,1,3.55,3.44,3.44,0,0,0,2.85,1.22,4,4,0,0,0,1.22-.17,8.68,8.68,0,0,0,1.26-.52c.52-.24.94-.41,1.27-.53a3.23,3.23,0,0,1,1.06-.17,1.75,1.75,0,0,1,1.46.75,3.25,3.25,0,0,1,.56,2,3,3,0,0,1-.31,1.34,2.14,2.14,0,0,1-.85.91,12.3,12.3,0,0,1-6.52,1.63A10.11,10.11,0,0,1,173.85,54.83Z" fill="#fff"/><path d="M211.48,54.06a3.32,3.32,0,0,1-.92,2.29,2.84,2.84,0,0,1-2.19,1,3.31,3.31,0,0,1-2.17-1l-7.87-7.49v5.24a2.92,2.92,0,0,1-1,2.4,4.12,4.12,0,0,1-4.93,0,2.92,2.92,0,0,1-1-2.4V32.84a3,3,0,0,1,1-2.41,4.16,4.16,0,0,1,4.93,0,3,3,0,0,1,1,2.41V46l7.17-7.29a3.05,3.05,0,0,1,2.25-1,3,3,0,0,1,2.19,1,2.94,2.94,0,0,1,.95,2.15,3.07,3.07,0,0,1-1,2.21l-4.23,4.19,4.81,4.62A3.05,3.05,0,0,1,211.48,54.06Z" fill="#fff"/></svg>