<svg xmlns="http://www.w3.org/2000/svg" viewBox="0 0 60 60">
<defs><style>.a{fill:currentcolor;fill-rule:evenodd;}</style></defs><title>wire frame game master</title><path class="a" d="M31.31,52.49h11a4.83,4.83,0,0,0,4.82-4.82V11.09l11.56,3.1a1.73,1.73,0,0,1,1.23,2.12L49.43,55.55a1.74,1.74,0,0,1-2.13,1.22l-16-4.28Z"/><path class="a" d="M32.41,49.41l2.28-.62a4.81,4.81,0,0,0,3.41-5.9L28,5.31h14.3a1.74,1.74,0,0,1,1.73,1.74V47.67a1.74,1.74,0,0,1-1.73,1.74Z"/><path class="a" d="M33.9,45.81,12.7,51.49a1.74,1.74,0,0,1-2.13-1.22L.06,11A1.74,1.74,0,0,1,.23,9.71a1.68,1.68,0,0,1,1.06-.8L22.48,3.22a1.74,1.74,0,0,1,2.13,1.23L35.12,43.69A1.74,1.74,0,0,1,35,45a1.76,1.76,0,0,1-1.05.8Z"/></svg>