<svg xmlns="http://www.w3.org/2000/svg" width="60" height="60" viewBox="0 0 60 60"><title>wire frame game master</title><path d="M43.71,6.25V12a1.26,1.26,0,0,1-1.26,1.25h-4.9A1.25,1.25,0,0,1,36.3,12V6.25A1.25,1.25,0,0,0,35.05,5H25A1.25,1.25,0,0,0,23.7,6.25V12a1.25,1.25,0,0,1-1.25,1.25h-4.9A1.26,1.26,0,0,1,16.29,12V6.25A1.25,1.25,0,0,0,15,5H5A1.26,1.26,0,0,0,3.69,6.25V21.39L6.8,26.78v27A1.25,1.25,0,0,0,8.05,55H22.46a1.25,1.25,0,0,0,1.25-1.26v-13a6.52,6.52,0,0,1,5.89-6.61,6.26,6.26,0,0,1,6.69,6.28V53.74A1.25,1.25,0,0,0,37.55,55H51.93a1.25,1.25,0,0,0,1.25-1.26V26.8h0l3.12-5.41V6.25A1.26,1.26,0,0,0,55.05,5H45A1.25,1.25,0,0,0,43.71,6.25Z"/></svg>