<svg xmlns="http://www.w3.org/2000/svg" width="60" height="60" viewBox="0 0 60 60"><defs><style>.a{fill-rule:evenodd;}</style></defs><title>wire frame game master</title><path class="a" d="M60,49.42v2.24H48.19V49.07a11.13,11.13,0,0,0-7-10.33l2.15-13.83a5.79,5.79,0,1,1,5.83,0L51.7,41.26a1,1,0,0,0,.95.81A7.35,7.35,0,0,1,60,49.42Z"/><path class="a" d="M16.68,24.92l2.13,13.6a11.09,11.09,0,0,0-7.66,10.55v2.59H0V49.42a7.37,7.37,0,0,1,7.35-7.35,1,1,0,0,0,1-.81l2.56-16.34a5.78,5.78,0,1,1,5.82,0Z"/><path class="a" d="M37.08,40.59a1.12,1.12,0,0,1-1.1-.94L33,20.78a6.68,6.68,0,1,0-6.71,0L23.36,39.65a1.12,1.12,0,0,1-1.1.94h0a8.49,8.49,0,0,0-8.49,8.49v2.58h31.8V49.08A8.49,8.49,0,0,0,37.08,40.59Z"/></svg>