<svg xmlns="http://www.w3.org/2000/svg" width="60" height="60" viewBox="0 0 60 60"><defs><style>.a{fill-rule:evenodd;}</style></defs><title>wire frame game master</title><path class="a" d="M23.29,49,3.4,23.21A.71.71,0,0,1,4,22.08H15.33a.78.78,0,0,1,.75.55l8.26,25.78A.6.6,0,0,1,23.29,49Z"/><path class="a" d="M13.16,5.16h8.66a.79.79,0,0,1,.7,1.16l-6.18,11.9a.81.81,0,0,1-.7.43H3.92a.71.71,0,0,1-.56-1.13l9.17-12A.79.79,0,0,1,13.16,5.16Z"/><path class="a" d="M38.71,18.65H21.29a.79.79,0,0,1-.7-1.16l6.18-11.9a.81.81,0,0,1,.7-.43h5.06a.81.81,0,0,1,.7.43l6.18,11.9A.79.79,0,0,1,38.71,18.65Z"/><path class="a" d="M20.6,22.08H39.4a.79.79,0,0,1,.76,1L30.57,53a.6.6,0,0,1-1.14,0L19.84,23.11A.79.79,0,0,1,20.6,22.08Z"/><path class="a" d="M43.66,18.22,37.48,6.32a.79.79,0,0,1,.7-1.16h8.66a.79.79,0,0,1,.63.32l9.17,12a.71.71,0,0,1-.56,1.13H44.36A.81.81,0,0,1,43.66,18.22Z"/><path class="a" d="M35.66,48.41l8.26-25.78a.78.78,0,0,1,.75-.55H56a.71.71,0,0,1,.56,1.13L36.71,49A.6.6,0,0,1,35.66,48.41Z"/></svg>