<svg xmlns="http://www.w3.org/2000/svg" width="60" height="60" viewBox="0 0 60 60"><title>wire frame game master</title><path d="M45.24,12.42c1.75,1.56,1.06,2.75.37,3.44l-3.06,3.19c-.94.94-2.13,1.06-3.57.06-2.69-2.06-5.63-3.63-9.13-3.63-3.76,0-6.7,1.57-6.7,4.51,0,1.75,1.13,3.19,4.44,4.13L36,26.18c7.07,1.88,12,5.38,12,12.71,0,6.75-5.75,13.89-17.77,13.89-8.51,0-14.2-3.19-17.21-6.39-1.18-1.18-1.43-2.75-.12-3.81l4-3.13c1.26-.94,2.26-.44,3.19.5a14.76,14.76,0,0,0,10.52,4.5c4.75,0,7.13-2.31,7.13-4.63,0-2.75-2.19-4.13-6.26-5.13L23.9,32.82C17.14,31.13,13.08,27,13.08,20.68c0-7.82,7.19-13.46,17-13.46C37.23,7.22,42.55,9.85,45.24,12.42Z"/><path d="M30.23,60a2.93,2.93,0,0,1-2.93-2.93V2.93a2.94,2.94,0,0,1,5.87,0V57.07A2.93,2.93,0,0,1,30.23,60Z"/></svg>