<svg xmlns="http://www.w3.org/2000/svg" width="60" height="60" viewBox="0 0 60 60"><title>wire frame game master</title><path d="M58.13,11.81H34.61a1.9,1.9,0,0,0-1.85,1.26,1.87,1.87,0,0,0,1.77,2.48h.12v8.2H28.12V22a2,2,0,0,0-2-2H23.77a2,2,0,0,0-2,2v1.71H17.7a.49.49,0,0,1-.49-.6l2.16-10.51a.59.59,0,0,0,0-.14v-3a.7.7,0,0,0-.7-.7H8.93a.7.7,0,0,0-.7.7v3a.61.61,0,0,0,0,.14l2.17,10.51a.49.49,0,0,1-.49.6H5.84a21.88,21.88,0,0,0,0,13.7H3.55a1,1,0,0,0-1,.79L.3,47.85a1,1,0,0,0,1,1.26H9.12a4.39,4.39,0,0,0,8.15-2.28h1.18a4.4,4.4,0,1,0,8.79,0h2.45a6.42,6.42,0,0,0,12.19,0h2.78a6.43,6.43,0,1,0,11.81-5h1.46a.51.51,0,0,0,.5-.51V38a.5.5,0,0,0-.5-.5H55.4V15.55h2.65a1.9,1.9,0,0,0,1.85-1.26A1.87,1.87,0,0,0,58.13,11.81Zm-7,12.84a2.43,2.43,0,0,1-2.43,2.43H42a2.43,2.43,0,0,1-2.44-2.43V21.39A2.44,2.44,0,0,1,42,19h6.67a2.43,2.43,0,0,1,2.43,2.44Z"/></svg>